# xmcd
#
# Track frame offsets:
#	150
#	7755
#	26869
#	47383
#	51641
#	88712
#	125495
#	129929
#	167388
#	200630
#	223544
#	231681
#	248297
#	259320
#	281960
#	303038
#	325547
#
# Disc length: 4655 seconds
#
# Revision: 1
# Processed by: cddbd v1.5.2PL0 Copyright (c) Steve Scherf et al.
# Submitted via: audiograbber 1.83.01
#
DISCID=e8122d11
DTITLE=Eckart von Hirschhausen - Wunder wirken Wunder
DYEAR=2016
DGENRE=Speech
TTITLE0=Die Wissenschaft des Pustens
TTITLE1=Damit Sie sich nicht wundern
TTITLE2=Ich habe Wunder gesehen
TTITLE3=Was Menschen in Deutschland glauben
TTITLE4=Magie und Marie
TTITLE5=Der wundersame Heiler in uns
TTITLE6=Zehn Dinge, die Sie über Placebos womöglich noch nicht wussten
TTITLE7=Wie ich in Trance meinen inneren Staubsaugervertreter traf
TTITLE8=Für eine Handvoll guter Fragen
TTITLE9=Die Wunderindustrie
TTITLE10=Was ist uns unsere Gesundheit wert
TTITLE11=Ein Impfmärchen mit Happy End
TTITLE12=Wahre Wunder
TTITLE13=Mein Wunderkind ist tiefbegabt
TTITLE14=Heilpraktiker für Autos
TTITLE15=Der König im Krankenhaus
TTITLE16=Die Magie der Poesie oder Worte forte
EXTD=
EXTT0=
EXTT1=
EXTT2=
EXTT3=
EXTT4=
EXTT5=
EXTT6=
EXTT7=
EXTT8=
EXTT9=
EXTT10=
EXTT11=
EXTT12=
EXTT13=
EXTT14=
EXTT15=
EXTT16=
PLAYORDER=
